<?xml version="1.0" encoding="UTF-8"?>
<!DOCTYPE svg PUBLIC "-//W3C//DTD SVG 1.1//EN" "http://www.w3.org/Graphics/SVG/1.1/DTD/svg11.dtd">
<!-- Creator: CorelDRAW -->
<svg xmlns="http://www.w3.org/2000/svg" xml:space="preserve" width="2in" height="2in" version="1.1" style="shape-rendering:geometricPrecision; text-rendering:geometricPrecision; image-rendering:optimizeQuality; fill-rule:evenodd; clip-rule:evenodd"
viewBox="0 0 2000 2000"
 xmlns:xlink="http://www.w3.org/1999/xlink">
 <defs>
  <style type="text/css">
   <![CDATA[
    .fil2 {fill:#28203C}
    .fil1 {fill:#93AFC9}
    .fil0 {fill:#F8A92E}
   ]]>
  </style>
 </defs>
 <g id="Layer_x0020_1">
  <metadata id="CorelCorpID_0Corel-Layer"/>
  <path class="fil0" d="M1134 950c0,234 -191,425 -425,425 -234,0 -424,-191 -424,-425 0,-234 190,-425 424,-425 234,0 425,191 425,425zm-959 543l1550 0c21,0 38,-17 38,-38l0 -308 -336 0c-109,0 -198,-88 -198,-197 0,-109 89,-197 198,-197l336 0 0 -308c0,-21 -17,-38 -38,-38l-1550 0c-21,0 -38,17 -38,38l0 1010c0,21 17,38 38,38z"/>
  <path class="fil1" d="M1269 950c0,87 71,157 158,157l336 0 0 -314 -336 0c-87,0 -158,70 -158,157zm190 -102c56,0 102,46 102,102 0,56 -46,102 -102,102 -57,0 -103,-46 -103,-102 0,-56 46,-102 103,-102z"/>
  <path class="fil0" d="M1459 888c-82,0 -82,124 0,124 82,0 82,-124 0,-124z"/>
  <path class="fil1" d="M709 1335c212,0 385,-173 385,-385 0,-212 -173,-385 -385,-385 -212,0 -384,173 -384,385 0,212 172,385 384,385zm119 -286c0,58 -43,107 -99,116l0 75c0,26 -40,26 -40,0l0 -75c-91,-15 -124,-136 -78,-136 11,0 20,9 20,20 0,43 35,78 78,78 44,0 79,-35 79,-78 0,-44 -35,-79 -79,-79 -65,0 -118,-53 -118,-119 0,-58 42,-107 98,-116l0 -75c0,-26 40,-26 40,0l0 75c92,15 125,136 79,136 -11,0 -20,-9 -20,-20 0,-43 -35,-78 -79,-78 -43,0 -78,35 -78,78 0,44 35,79 78,79 66,0 119,53 119,119z"/>
  <path class="fil2" d="M759 1425c-234,0 -424,-191 -424,-425 0,-234 190,-425 424,-425 234,0 425,191 425,425 0,234 -191,425 -425,425zm1016 158l-1550 0c-43,0 -78,-35 -78,-78l0 -1010c0,-43 35,-78 78,-78l1550 0c43,0 78,35 78,78l0 1010c0,43 -35,78 -78,78zm-1550 -1126c-21,0 -38,17 -38,38l0 1010c0,21 17,38 38,38l1550 0c21,0 38,-17 38,-38l0 -308 -336 0c-109,0 -198,-88 -198,-197 0,-109 89,-197 198,-197l336 0 0 -308c0,-21 -17,-38 -38,-38l-1550 0zm1252 386c-87,0 -158,70 -158,157 0,87 71,157 158,157l336 0 0 -314 -336 0zm32 259c-57,0 -103,-46 -103,-102 0,-56 46,-102 103,-102 56,0 102,46 102,102 0,56 -46,102 -102,102zm0 -164c-82,0 -82,124 0,124 82,0 82,-124 0,-124zm-770 277c-91,-15 -124,-136 -78,-136 11,0 20,9 20,20 0,43 35,78 78,78 44,0 79,-35 79,-78 0,-44 -35,-79 -79,-79 -65,0 -118,-53 -118,-119 0,-58 42,-107 98,-116l0 -75c0,-26 40,-26 40,0l0 75c92,15 125,136 79,136 -11,0 -20,-9 -20,-20 0,-43 -35,-78 -79,-78 -43,0 -78,35 -78,78 0,44 35,79 78,79 66,0 119,53 119,119 0,58 -43,107 -99,116l0 75c0,26 -40,26 -40,0l0 -75zm20 -600c-212,0 -384,173 -384,385 0,212 172,385 384,385 212,0 385,-173 385,-385 0,-212 -173,-385 -385,-385z"/>
 </g>
</svg>
